<?xml version="1.0" encoding="UTF-8"?>
<svg xmlns="http://www.w3.org/2000/svg" xmlns:xlink="http://www.w3.org/1999/xlink" width="24pt" height="24pt" viewBox="0 0 24 24" version="1.1">
<g id="surface1">
<path style=" stroke:none;fill-rule:nonzero;fill:#6be585;fill-opacity:1;" d="M 12 1.761719 C 9.21875 1.761719 8.871094 1.773438 7.777344 1.824219 C 6.6875 1.871094 5.945312 2.042969 5.292969 2.296875 C 4.621094 2.558594 4.050781 2.910156 3.476562 3.476562 C 2.910156 4.050781 2.558594 4.621094 2.296875 5.292969 C 2.042969 5.945312 1.871094 6.6875 1.824219 7.777344 C 1.773438 8.871094 1.761719 9.21875 1.761719 12 C 1.761719 14.78125 1.773438 15.128906 1.824219 16.222656 C 1.871094 17.3125 2.042969 18.054688 2.296875 18.707031 C 2.558594 19.378906 2.910156 19.949219 3.476562 20.523438 C 4.050781 21.089844 4.621094 21.441406 5.292969 21.703125 C 5.945312 21.957031 6.6875 22.128906 7.777344 22.175781 C 8.871094 22.226562 9.21875 22.238281 12 22.238281 C 14.78125 22.238281 15.128906 22.226562 16.222656 22.175781 C 17.3125 22.128906 18.054688 21.957031 18.707031 21.703125 C 19.378906 21.441406 19.949219 21.089844 20.523438 20.523438 C 21.089844 19.949219 21.441406 19.378906 21.703125 18.707031 C 21.957031 18.054688 22.128906 17.3125 22.175781 16.222656 C 22.226562 15.128906 22.238281 14.78125 22.238281 12 C 22.238281 9.21875 22.226562 8.871094 22.175781 7.777344 C 22.128906 6.6875 21.957031 5.945312 21.703125 5.292969 C 21.441406 4.621094 21.089844 4.050781 20.523438 3.476562 C 19.949219 2.910156 19.378906 2.558594 18.707031 2.296875 C 18.054688 2.042969 17.3125 1.871094 16.222656 1.824219 C 15.128906 1.773438 14.78125 1.761719 12 1.761719 Z M 12 3.605469 C 14.734375 3.605469 15.058594 3.613281 16.136719 3.664062 C 17.136719 3.707031 17.675781 3.875 18.039062 4.015625 C 18.519531 4.203125 18.859375 4.425781 19.214844 4.785156 C 19.574219 5.140625 19.796875 5.480469 19.984375 5.960938 C 20.125 6.324219 20.292969 6.863281 20.335938 7.863281 C 20.386719 8.941406 20.394531 9.265625 20.394531 12 C 20.394531 14.734375 20.386719 15.058594 20.335938 16.136719 C 20.292969 17.136719 20.125 17.675781 19.984375 18.039062 C 19.796875 18.519531 19.574219 18.859375 19.214844 19.214844 C 18.859375 19.574219 18.519531 19.796875 18.039062 19.984375 C 17.675781 20.125 17.136719 20.292969 16.136719 20.335938 C 15.058594 20.386719 14.734375 20.394531 12 20.394531 C 9.265625 20.394531 8.941406 20.386719 7.863281 20.335938 C 6.863281 20.292969 6.324219 20.125 5.960938 19.984375 C 5.480469 19.796875 5.140625 19.574219 4.785156 19.214844 C 4.425781 18.859375 4.203125 18.519531 4.015625 18.039062 C 3.875 17.675781 3.707031 17.136719 3.664062 16.136719 C 3.613281 15.058594 3.605469 14.734375 3.605469 12 C 3.605469 9.265625 3.613281 8.941406 3.664062 7.863281 C 3.707031 6.863281 3.875 6.324219 4.015625 5.960938 C 4.203125 5.480469 4.425781 5.140625 4.785156 4.785156 C 5.140625 4.425781 5.480469 4.203125 5.960938 4.015625 C 6.324219 3.875 6.863281 3.707031 7.863281 3.664062 C 8.941406 3.613281 9.265625 3.605469 12 3.605469 Z M 12 3.605469 "/>
<path style=" stroke:none;fill-rule:nonzero;fill:#6be585;fill-opacity:1;" d="M 12 15.414062 C 10.117188 15.414062 8.585938 13.882812 8.585938 12 C 8.585938 10.117188 10.117188 8.585938 12 8.585938 C 13.882812 8.585938 15.414062 10.117188 15.414062 12 C 15.414062 13.882812 13.882812 15.414062 12 15.414062 Z M 12 6.742188 C 9.097656 6.742188 6.742188 9.097656 6.742188 12 C 6.742188 14.902344 9.097656 17.257812 12 17.257812 C 14.902344 17.257812 17.257812 14.902344 17.257812 12 C 17.257812 9.097656 14.902344 6.742188 12 6.742188 Z M 12 6.742188 "/>
<path style=" stroke:none;fill-rule:nonzero;fill::#6be585;fill-opacity:1;" d="M 18.695312 6.535156 C 18.695312 7.214844 18.144531 7.761719 17.464844 7.761719 C 16.785156 7.761719 16.238281 7.214844 16.238281 6.535156 C 16.238281 5.855469 16.785156 5.304688 17.464844 5.304688 C 18.144531 5.304688 18.695312 5.855469 18.695312 6.535156 Z M 18.695312 6.535156 "/>
</g>
</svg>
