<?xml version="1.0" encoding="UTF-8"?>
<svg xmlns="http://www.w3.org/2000/svg" xmlns:xlink="http://www.w3.org/1999/xlink" width="24pt" height="24pt" viewBox="0 0 24 24" version="1.1">
<g id="surface1">
<path style=" stroke:none;fill-rule:nonzero;fill:rgb(100%,100%,100%);fill-opacity:1;" d="M 22.1875 -0.0664062 C 23.164062 -0.0664062 23.960938 0.710938 23.960938 1.667969 L 23.960938 22.210938 C 23.960938 23.164062 23.164062 23.941406 22.1875 23.941406 L 1.730469 23.941406 C 0.75 23.941406 -0.0429688 23.164062 -0.0429688 22.210938 L -0.0429688 1.667969 C -0.0429688 0.710938 0.75 -0.0664062 1.730469 -0.0664062 Z M 20.414062 20.394531 L 20.414062 14.109375 C 20.414062 11.023438 19.746094 8.652344 16.144531 8.652344 C 14.410156 8.652344 13.246094 9.601562 12.773438 10.503906 L 12.722656 10.503906 L 12.722656 8.933594 L 9.308594 8.933594 L 9.308594 20.394531 L 12.867188 20.394531 L 12.867188 14.726562 C 12.867188 13.230469 13.152344 11.785156 15.003906 11.785156 C 16.832031 11.785156 16.851562 13.496094 16.851562 14.820312 L 16.851562 20.394531 Z M 7.078125 8.933594 L 3.511719 8.933594 L 3.511719 20.394531 L 7.078125 20.394531 Z M 5.296875 3.238281 C 4.152344 3.238281 3.230469 4.167969 3.230469 5.304688 C 3.230469 6.445312 4.152344 7.371094 5.296875 7.371094 C 6.4375 7.371094 7.359375 6.445312 7.359375 5.304688 C 7.359375 4.167969 6.4375 3.238281 5.296875 3.238281 Z M 5.296875 3.238281 "/>
</g>
</svg>
