<?xml version="1.0" encoding="UTF-8"?>
<svg xmlns="http://www.w3.org/2000/svg" xmlns:xlink="http://www.w3.org/1999/xlink" width="24pt" height="24pt" viewBox="0 0 24 24" version="1.1">
<g id="surface1">
<path style=" stroke:none;fill-rule:nonzero;fill-opacity:1;" d="M 7.546875 21.75 C 16.605469 21.75 21.558594 14.246094 21.558594 7.738281 C 21.558594 7.527344 21.558594 7.316406 21.542969 7.105469 C 22.503906 6.40625 23.339844 5.542969 24 4.554688 C 23.105469 4.949219 22.148438 5.214844 21.167969 5.328125 C 22.199219 4.714844 22.96875 3.746094 23.339844 2.605469 C 22.371094 3.183594 21.308594 3.585938 20.207031 3.800781 C 19.277344 2.8125 17.976562 2.25 16.621094 2.25 C 13.917969 2.25 11.691406 4.472656 11.691406 7.175781 C 11.691406 7.550781 11.734375 7.925781 11.816406 8.292969 C 7.863281 8.09375 4.167969 6.222656 1.667969 3.144531 C 0.371094 5.386719 1.042969 8.285156 3.191406 9.722656 C 2.410156 9.699219 1.644531 9.488281 0.960938 9.105469 L 0.960938 9.167969 C 0.960938 11.503906 2.621094 13.53125 4.910156 13.992188 C 4.183594 14.191406 3.425781 14.222656 2.6875 14.082031 C 3.332031 16.078125 5.183594 17.457031 7.289062 17.496094 C 5.542969 18.867188 3.390625 19.613281 1.171875 19.613281 C 0.777344 19.609375 0.390625 19.585938 0 19.539062 C 2.25 20.980469 4.871094 21.75 7.546875 21.746094 "/>
</g>
</svg>
